<mxfile host="Electron" modified="2023-11-13T11:06:30.104Z" agent="Mozilla/5.0 (Windows NT 10.0; Win64; x64) AppleWebKit/537.36 (KHTML, like Gecko) draw.io/22.0.2 Chrome/114.0.5735.289 Electron/25.8.4 Safari/537.36" version="22.0.2" etag="vkbBlyGLQ5BGgcOXnh1p" type="device">
  <diagram id="b_Fb85eE6_d2-5BRRbm_" name="Page-1">
    <mxGraphModel dx="2243" dy="1687" grid="1" gridSize="10" guides="1" tooltips="1" connect="1" arrows="1" fold="1" page="0" pageScale="1" pageWidth="827" pageHeight="1169" background="none" math="0" shadow="0">
      <root>
        <mxCell id="0" />
        <mxCell id="1" parent="0" />
        <mxCell id="node10" value="&lt;p style=&quot;margin:0px;margin-top:4px;text-align:center;&quot;&gt;&lt;b&gt;Advisor&lt;/b&gt;&lt;/p&gt;&lt;hr size=&quot;1&quot;/&gt;&lt;p style=&quot;margin:0 0 0 4px;line-height:1.6;&quot;&gt;+ Advisor(int, String, String, String, String): &lt;br/&gt;+ Advisor(): &lt;/p&gt;&lt;hr size=&quot;1&quot;/&gt;&lt;p style=&quot;margin:0 0 0 4px;line-height:1.6;&quot;&gt;- studentsAdvised: List&amp;lt;Student&amp;gt;&lt;br/&gt;- requests: List&amp;lt;Registration&amp;gt;&lt;/p&gt;&lt;hr size=&quot;1&quot;/&gt;&lt;p style=&quot;margin:0 0 0 4px;line-height:1.6;&quot;&gt;+ listRequests(): void&lt;br/&gt;+ getStudentsAdvised(): List&amp;lt;Student&amp;gt;&lt;br/&gt;~ login(String, String): boolean&lt;br/&gt;+ addRequest(Registration): void&lt;br/&gt;+ printMenu(String): void&lt;br/&gt;+ getRequests(): List&amp;lt;Registration&amp;gt;&lt;/p&gt;" style="verticalAlign=top;align=left;overflow=fill;fontSize=14;fontFamily=Helvetica;html=1;rounded=0;shadow=0;comic=0;labelBackgroundColor=none;strokeWidth=1;" parent="1" vertex="1">
          <mxGeometry x="539" y="608" width="309" height="292" as="geometry" />
        </mxCell>
        <mxCell id="node5" value="&lt;p style=&quot;margin:0px;margin-top:4px;text-align:center;&quot;&gt;&lt;b&gt;Course&lt;/b&gt;&lt;/p&gt;&lt;hr size=&quot;1&quot;/&gt;&lt;p style=&quot;margin:0 0 0 4px;line-height:1.6;&quot;&gt;+ Course(String, String, int): &lt;br/&gt;+ Course(String, String, int, byte): &lt;/p&gt;&lt;hr size=&quot;1&quot;/&gt;&lt;p style=&quot;margin:0 0 0 4px;line-height:1.6;&quot;&gt;- semester: byte&lt;br/&gt;- courseCode: String&lt;br/&gt;- preRequsitieToCourses: List&amp;lt;Course&amp;gt;&lt;br/&gt;- lecturer: Lecturer&lt;br/&gt;- courseSections: List&amp;lt;CourseSection&amp;gt;&lt;br/&gt;- preRequisiteCourses: List&amp;lt;Course&amp;gt;&lt;br/&gt;- courseCredit: int&lt;br/&gt;- courseName: String&lt;/p&gt;&lt;hr size=&quot;1&quot;/&gt;&lt;p style=&quot;margin:0 0 0 4px;line-height:1.6;&quot;&gt;+ getPreRequisiteCourses(): List&amp;lt;Course&amp;gt;&lt;br/&gt;+ addPreRequisiteCourse(Course): void&lt;br/&gt;+ getCourseSessions(): List&lt;br/&gt;+ getSemester(): byte&lt;br/&gt;+ getCourseCredit(): int&lt;br/&gt;+ getCourseCode(): String&lt;br/&gt;+ getCourseName(): String&lt;/p&gt;" style="verticalAlign=top;align=left;overflow=fill;fontSize=14;fontFamily=Helvetica;html=1;rounded=0;shadow=0;comic=0;labelBackgroundColor=none;strokeWidth=1;" parent="1" vertex="1">
          <mxGeometry x="923" y="-405" width="297" height="449" as="geometry" />
        </mxCell>
        <mxCell id="node11" value="&lt;p style=&quot;margin:0px;margin-top:4px;text-align:center;&quot;&gt;&lt;b&gt;CourseRegistrationSystem&lt;/b&gt;&lt;/p&gt;&lt;hr size=&quot;1&quot;/&gt;&lt;p style=&quot;margin:0 0 0 4px;line-height:1.6;&quot;&gt;+ CourseRegistrationSystem(): &lt;/p&gt;&lt;hr size=&quot;1&quot;/&gt;&lt;p style=&quot;margin:0 0 0 4px;line-height:1.6;&quot;&gt;- input: Scanner&lt;br/&gt;- choice: int&lt;/p&gt;&lt;hr size=&quot;1&quot;/&gt;&lt;p style=&quot;margin:0 0 0 4px;line-height:1.6;&quot;&gt;+ mainMenu(Department): void&lt;br/&gt;+ exitProgram(): void&lt;br/&gt;+ readInputParameters(): void&lt;br/&gt;+ printMenu(String): void&lt;br/&gt;+ start(): void&lt;br/&gt;+ loginMenu(Department): void&lt;br/&gt;+ studentMenu(Student): void&lt;br/&gt;+ getInput(): int&lt;br/&gt;+ advisorMenu(Advisor): void&lt;br/&gt;+ courseSelectionMenu(Student): void&lt;br/&gt;+ saveJSON(): void&lt;/p&gt;" style="verticalAlign=top;align=left;overflow=fill;fontSize=14;fontFamily=Helvetica;html=1;rounded=0;shadow=0;comic=0;labelBackgroundColor=none;strokeWidth=1;" parent="1" vertex="1">
          <mxGeometry x="248" y="560" width="271" height="377" as="geometry" />
        </mxCell>
        <mxCell id="node16" value="&lt;p style=&quot;margin:0px;margin-top:4px;text-align:center;&quot;&gt;&lt;b&gt;CourseSection&lt;/b&gt;&lt;/p&gt;&lt;hr size=&quot;1&quot;/&gt;&lt;p style=&quot;margin:0 0 0 4px;line-height:1.6;&quot;&gt;+ CourseSection(Course, String, String, int): &lt;/p&gt;&lt;hr size=&quot;1&quot;/&gt;&lt;p style=&quot;margin:0 0 0 4px;line-height:1.6;&quot;&gt;- courseSectionCode: String&lt;br/&gt;- hour: int&lt;br/&gt;- day: String&lt;br/&gt;- students: List&lt;/p&gt;&lt;hr size=&quot;1&quot;/&gt;&lt;p style=&quot;margin:0 0 0 4px;line-height:1.6;&quot;&gt;+ getDay(): String&lt;/p&gt;" style="verticalAlign=top;align=left;overflow=fill;fontSize=14;fontFamily=Helvetica;html=1;rounded=0;shadow=0;comic=0;labelBackgroundColor=none;strokeWidth=1;" parent="1" vertex="1">
          <mxGeometry x="914" y="94" width="314" height="206" as="geometry" />
        </mxCell>
        <mxCell id="node15" value="&lt;p style=&quot;margin:0px;margin-top:4px;text-align:center;&quot;&gt;&lt;b&gt;Department&lt;/b&gt;&lt;/p&gt;&lt;hr size=&quot;1&quot;/&gt;&lt;p style=&quot;margin:0 0 0 4px;line-height:1.6;&quot;&gt;+ Department(String): &lt;/p&gt;&lt;hr size=&quot;1&quot;/&gt;&lt;p style=&quot;margin:0 0 0 4px;line-height:1.6;&quot;&gt;- advisorIDAdvisorMap: Map&amp;lt;String, Advisor&amp;gt;&lt;br/&gt;- courses: List&amp;lt;Course&amp;gt;&lt;br/&gt;- courseCodeCourseMap: Map&amp;lt;String, Course&amp;gt;&lt;br/&gt;- maxCourseNumber: byte&lt;br/&gt;- transcripts: List&amp;lt;Transcript&amp;gt;&lt;br/&gt;- userNamePersonMap: Map&amp;lt;String, Person&amp;gt;&lt;br/&gt;- departmentName: String&lt;br/&gt;- advisors: List&amp;lt;Advisor&amp;gt;&lt;br/&gt;- studentIDStudentMap: Map&amp;lt;String, Student&amp;gt;&lt;br/&gt;- students: List&amp;lt;Student&amp;gt;&lt;/p&gt;&lt;hr size=&quot;1&quot;/&gt;&lt;p style=&quot;margin:0 0 0 4px;line-height:1.6;&quot;&gt;+ getAdvisors(): List&amp;lt;Advisor&amp;gt;&lt;br/&gt;+ getTranscripts(): List&amp;lt;Transcript&amp;gt;&lt;br/&gt;+ getDepartmentName(): String&lt;br/&gt;+ getMaxCourseNumber(): byte&lt;br/&gt;+ getCourses(): List&amp;lt;Course&amp;gt;&lt;br/&gt;+ getUserNamePersonMap(): Map&amp;lt;String, Person&amp;gt;&lt;br/&gt;+ getStudents(): List&amp;lt;Student&amp;gt;&lt;/p&gt;" style="verticalAlign=top;align=left;overflow=fill;fontSize=14;fontFamily=Helvetica;html=1;rounded=0;shadow=0;comic=0;labelBackgroundColor=none;strokeWidth=1;" parent="1" vertex="1">
          <mxGeometry x="1273" y="-405" width="352" height="473" as="geometry" />
        </mxCell>
        <mxCell id="node1" value="&lt;p style=&quot;margin:0px;margin-top:4px;text-align:center;&quot;&gt;&lt;b&gt;Grade&lt;/b&gt;&lt;/p&gt;&lt;hr size=&quot;1&quot;/&gt;&lt;p style=&quot;margin:0 0 0 4px;line-height:1.6;&quot;&gt;+ Grade(String): &lt;/p&gt;&lt;hr size=&quot;1&quot;/&gt;&lt;p style=&quot;margin:0 0 0 4px;line-height:1.6;&quot;&gt;- letterGrade: String&lt;br/&gt;- gradeOver100: int&lt;br/&gt;- gradeOver4: double&lt;/p&gt;&lt;hr size=&quot;1&quot;/&gt;&lt;p style=&quot;margin:0 0 0 4px;line-height:1.6;&quot;&gt;+ getGradeOver4(): double&lt;br/&gt;- setGradeOver4(): void&lt;br/&gt;+ getLetterGrade(): String&lt;br/&gt;- setGradeOver100(): void&lt;/p&gt;" style="verticalAlign=top;align=left;overflow=fill;fontSize=14;fontFamily=Helvetica;html=1;rounded=0;shadow=0;comic=0;labelBackgroundColor=none;strokeWidth=1;" parent="1" vertex="1">
          <mxGeometry x="370" y="1234" width="199" height="233" as="geometry" />
        </mxCell>
        <mxCell id="node8" value="&lt;p style=&quot;margin:0px;margin-top:4px;text-align:center;&quot;&gt;&lt;i&gt;&amp;lt;&amp;lt;interface&amp;gt;&amp;gt;&lt;/i&gt;&lt;br/&gt;&lt;b&gt;IDisplayMenu&lt;/b&gt;&lt;/p&gt;&lt;hr size=&quot;1&quot;/&gt;&lt;p style=&quot;margin:0 0 0 4px;line-height:1.6;&quot;&gt;+ printMenu(String): void&lt;/p&gt;" style="verticalAlign=top;align=left;overflow=fill;fontSize=14;fontFamily=Helvetica;html=1;rounded=0;shadow=0;comic=0;labelBackgroundColor=none;strokeWidth=1;" parent="1" vertex="1">
          <mxGeometry x="254" y="169" width="190" height="79" as="geometry" />
        </mxCell>
        <mxCell id="node13" value="&lt;p style=&quot;margin:0px;margin-top:4px;text-align:center;&quot;&gt;&lt;b&gt;Lecturer&lt;/b&gt;&lt;/p&gt;&lt;hr size=&quot;1&quot;/&gt;&lt;p style=&quot;margin:0 0 0 4px;line-height:1.6;&quot;&gt;+ Lecturer(): &lt;br/&gt;+ Lecturer(int, String, String, String, String): &lt;/p&gt;&lt;hr size=&quot;1&quot;/&gt;&lt;p style=&quot;margin:0 0 0 4px;line-height:1.6;&quot;&gt;~ login(String, String): boolean&lt;/p&gt;" style="verticalAlign=top;align=left;overflow=fill;fontSize=14;fontFamily=Helvetica;html=1;rounded=0;shadow=0;comic=0;labelBackgroundColor=none;strokeWidth=1;" parent="1" vertex="1">
          <mxGeometry x="556" y="144" width="313" height="121" as="geometry" />
        </mxCell>
        <mxCell id="node14" value="&lt;p style=&quot;margin:0px;margin-top:4px;text-align:center;&quot;&gt;&lt;b&gt;Person&lt;/b&gt;&lt;/p&gt;&lt;hr size=&quot;1&quot;/&gt;&lt;p style=&quot;margin:0 0 0 4px;line-height:1.6;&quot;&gt;+ Person(): &lt;br/&gt;+ Person(int, String, String, String, String): &lt;br/&gt;+ Person(String, String): &lt;/p&gt;&lt;hr size=&quot;1&quot;/&gt;&lt;p style=&quot;margin:0 0 0 4px;line-height:1.6;&quot;&gt;- name: String&lt;br/&gt;- department: Department&lt;br/&gt;- surname: String&lt;br/&gt;- password: String&lt;br/&gt;- userName: String&lt;br/&gt;- ID: int&lt;/p&gt;&lt;hr size=&quot;1&quot;/&gt;&lt;p style=&quot;margin:0 0 0 4px;line-height:1.6;&quot;&gt;+ getID(): int&lt;br/&gt;+ getUserName(): String&lt;br/&gt;~ login(String, String): boolean&lt;br/&gt;+ setPassword(String): void&lt;br/&gt;+ setUserName(String): void&lt;br/&gt;+ getPassword(): String&lt;br/&gt;+ getName(): String&lt;br/&gt;+ getDepartment(): Department&lt;br/&gt;+ getSurname(): String&lt;br/&gt;+ setDepartment(Department): void&lt;/p&gt;" style="verticalAlign=top;align=left;overflow=fill;fontSize=14;fontFamily=Helvetica;html=1;rounded=0;shadow=0;comic=0;labelBackgroundColor=none;strokeWidth=1;" parent="1" vertex="1">
          <mxGeometry x="208" y="-405" width="305" height="497" as="geometry" />
        </mxCell>
        <mxCell id="node12" value="&lt;p style=&quot;margin:0px;margin-top:4px;text-align:center;&quot;&gt;&lt;b&gt;Registration&lt;/b&gt;&lt;/p&gt;&lt;hr size=&quot;1&quot;/&gt;&lt;p style=&quot;margin:0 0 0 4px;line-height:1.6;&quot;&gt;+ Registration(Student, List&amp;lt;Course&amp;gt;): &lt;/p&gt;&lt;hr size=&quot;1&quot;/&gt;&lt;p style=&quot;margin:0 0 0 4px;line-height:1.6;&quot;&gt;- student: Student&lt;br/&gt;- courses: List&amp;lt;Course&amp;gt;&lt;/p&gt;&lt;hr size=&quot;1&quot;/&gt;&lt;p style=&quot;margin:0 0 0 4px;line-height:1.6;&quot;&gt;+ approveRequest(Advisor): void&lt;br/&gt;+ rejectRequest(Advisor): void&lt;br/&gt;+ getStudent(): Student&lt;br/&gt;+ addRequest(Advisor): void&lt;br/&gt;+ showRequest(): void&lt;/p&gt;" style="verticalAlign=top;align=left;overflow=fill;fontSize=14;fontFamily=Helvetica;html=1;rounded=0;shadow=0;comic=0;labelBackgroundColor=none;strokeWidth=1;" parent="1" vertex="1">
          <mxGeometry x="45" y="1234" width="280" height="233" as="geometry" />
        </mxCell>
        <mxCell id="node0" value="&lt;p style=&quot;margin:0px;margin-top:4px;text-align:center;&quot;&gt;&lt;b&gt;Student&lt;/b&gt;&lt;/p&gt;&lt;hr size=&quot;1&quot;/&gt;&lt;p style=&quot;margin:0 0 0 4px;line-height:1.6;&quot;&gt;+ Student(int, String, String, String, String, byte): &lt;br/&gt;+ Student(): &lt;/p&gt;&lt;hr size=&quot;1&quot;/&gt;&lt;p style=&quot;margin:0 0 0 4px;line-height:1.6;&quot;&gt;- draft: ArrayList&amp;lt;Course&amp;gt;&lt;br/&gt;- hasRequest: boolean&lt;br/&gt;- selectedCourses: ArrayList&amp;lt;Course&amp;gt;&lt;br/&gt;- successfulCourseGradeMap: HashMap&amp;lt;Course, String&amp;gt;&lt;br/&gt;- courseSections: HashMap&amp;lt;Course, CourseSection&amp;gt;&lt;br/&gt;- advisor: Advisor&lt;br/&gt;- semester: byte&lt;br/&gt;- transcript: Transcript&lt;br/&gt;- availableCourses: ArrayList&amp;lt;Course&amp;gt;&lt;/p&gt;&lt;hr size=&quot;1&quot;/&gt;&lt;p style=&quot;margin:0 0 0 4px;line-height:1.6;&quot;&gt;+ getDepartmentName(): String&lt;br/&gt;+ getTranscript(): Transcript&lt;br/&gt;+ addCourses(ArrayList&amp;lt;Course&amp;gt;): void&lt;br/&gt;# selectCourses(): ArrayList&amp;lt;Course&amp;gt;&lt;br/&gt;+ dropCourse(Student): void&lt;br/&gt;+ isHasRequest(): boolean&lt;br/&gt;+ setUserName(String): void&lt;br/&gt;+ printMenu(String): void&lt;br/&gt;+ setPassword(String): void&lt;br/&gt;+ getSuccessfulCourseGradeMap(): HashMap&amp;lt;Course, String&amp;gt;&lt;br/&gt;+ showRequestStatus(): void&lt;br/&gt;+ setAdvisor(Advisor): void&lt;br/&gt;+ addCourse(Student): void&lt;br/&gt;+ getSemester(): byte&lt;br/&gt;+ getAdvisor(): Advisor&lt;br/&gt;~ login(String, String): boolean&lt;br/&gt;+ getAvailableCourses(): ArrayList&amp;lt;Course&amp;gt;&lt;br/&gt;+ getSelectedCourses(): ArrayList&amp;lt;Course&amp;gt;&lt;br/&gt;+ viewAvailableCourses(): void&lt;br/&gt;+ setHasRequest(boolean): void&lt;br/&gt;+ sendRequest(): void&lt;br/&gt;+ getDraft(): ArrayList&amp;lt;Course&amp;gt;&lt;br/&gt;+ setTranscript(Transcript): void&lt;br/&gt;+ getCourseSections(): HashMap&amp;lt;Course, CourseSection&amp;gt;&lt;/p&gt;" style="verticalAlign=top;align=left;overflow=fill;fontSize=14;fontFamily=Helvetica;html=1;rounded=0;shadow=0;comic=0;labelBackgroundColor=none;strokeWidth=1;" parent="1" vertex="1">
          <mxGeometry x="-197" y="308" width="425" height="872" as="geometry" />
        </mxCell>
        <mxCell id="node7" value="&lt;p style=&quot;margin:0px;margin-top:4px;text-align:center;&quot;&gt;&lt;b&gt;Transcript&lt;/b&gt;&lt;/p&gt;&lt;hr size=&quot;1&quot;/&gt;&lt;p style=&quot;margin:0 0 0 4px;line-height:1.6;&quot;&gt;+ Transcript(): &lt;br/&gt;+ Transcript(Student): &lt;/p&gt;&lt;hr size=&quot;1&quot;/&gt;&lt;p style=&quot;margin:0 0 0 4px;line-height:1.6;&quot;&gt;- courseGradeMap: Map&amp;lt;Course, Grade&amp;gt;&lt;br/&gt;- cgpa: double&lt;br/&gt;- semester: byte&lt;br/&gt;- student: Student&lt;br/&gt;- takenCredits: int&lt;br/&gt;- completedCredits: int&lt;br/&gt;- studentCourses: List&amp;lt;Course&amp;gt;&lt;/p&gt;&lt;hr size=&quot;1&quot;/&gt;&lt;p style=&quot;margin:0 0 0 4px;line-height:1.6;&quot;&gt;+ courseStatusCheck(Student): void&lt;br/&gt;+ setStudent(Student): void&lt;br/&gt;- calculateCgpa(): double&lt;br/&gt;+ showTranscript(): void&lt;br/&gt;+ calculativeCompletedCredits(): int&lt;br/&gt;+ readTranscript(String): Student&lt;br/&gt;+ calculateTakenCredits(): int&lt;br/&gt;+ getCourseGradeMap(): Map&amp;lt;Course, Grade&amp;gt;&lt;/p&gt;" style="verticalAlign=top;align=left;overflow=fill;fontSize=14;fontFamily=Helvetica;html=1;rounded=0;shadow=0;comic=0;labelBackgroundColor=none;strokeWidth=1;" parent="1" vertex="1">
          <mxGeometry x="1670" y="-405" width="327" height="455" as="geometry" />
        </mxCell>
        <mxCell id="node6" value="&lt;p style=&quot;margin:0px;margin-top:4px;text-align:center;&quot;&gt;&lt;b&gt;main&lt;/b&gt;&lt;/p&gt;&lt;hr size=&quot;1&quot;/&gt;&lt;p style=&quot;margin:0 0 0 4px;line-height:1.6;&quot;&gt;+ main(): &lt;/p&gt;&lt;hr size=&quot;1&quot;/&gt;&lt;p style=&quot;margin:0 0 0 4px;line-height:1.6;&quot;&gt;+ main(String[]): void&lt;/p&gt;" style="verticalAlign=top;align=left;overflow=fill;fontSize=14;fontFamily=Helvetica;html=1;rounded=0;shadow=0;comic=0;labelBackgroundColor=none;strokeWidth=1;" parent="1" vertex="1">
          <mxGeometry x="600" y="1234" width="168" height="95" as="geometry" />
        </mxCell>
        <mxCell id="edge0" value="" style="html=1;rounded=1;edgeStyle=orthogonalEdgeStyle;dashed=1;startArrow=none;endArrow=block;endSize=12;strokeColor=#008200;exitX=0.250;exitY=0.000;exitDx=0;exitDy=0;entryX=0.500;entryY=1.001;entryDx=0;entryDy=0;" parent="1" source="node10" target="node8" edge="1">
          <mxGeometry width="50" height="50" relative="1" as="geometry">
            <Array as="points">
              <mxPoint x="616" y="282" />
              <mxPoint x="349" y="282" />
            </Array>
          </mxGeometry>
        </mxCell>
        <mxCell id="edge4" value="" style="html=1;rounded=1;edgeStyle=orthogonalEdgeStyle;dashed=0;startArrow=none;endArrow=block;endSize=12;strokeColor=#000082;exitX=0.750;exitY=0.000;exitDx=0;exitDy=0;entryX=0.500;entryY=1.000;entryDx=0;entryDy=0;" parent="1" source="node10" target="node13" edge="1">
          <mxGeometry width="50" height="50" relative="1" as="geometry">
            <Array as="points">
              <mxPoint x="771" y="282" />
              <mxPoint x="713" y="282" />
            </Array>
          </mxGeometry>
        </mxCell>
        <mxCell id="edge1" value="" style="html=1;rounded=1;edgeStyle=orthogonalEdgeStyle;dashed=1;startArrow=none;endArrow=block;endSize=12;strokeColor=#008200;exitX=0.500;exitY=0.000;exitDx=0;exitDy=0;entryX=0.500;entryY=1.001;entryDx=0;entryDy=0;" parent="1" source="node11" target="node8" edge="1">
          <mxGeometry width="50" height="50" relative="1" as="geometry">
            <Array as="points">
              <mxPoint x="384" y="282" />
              <mxPoint x="349" y="282" />
            </Array>
          </mxGeometry>
        </mxCell>
        <mxCell id="edge6" value="" style="html=1;rounded=1;edgeStyle=orthogonalEdgeStyle;dashed=0;startArrow=none;endArrow=block;endSize=12;strokeColor=#000082;exitX=0.500;exitY=0.000;exitDx=0;exitDy=0;entryX=0.500;entryY=1.000;entryDx=0;entryDy=0;" parent="1" source="node16" target="node5" edge="1">
          <mxGeometry width="50" height="50" relative="1" as="geometry">
            <Array as="points" />
          </mxGeometry>
        </mxCell>
        <mxCell id="edge2" value="" style="html=1;rounded=1;edgeStyle=orthogonalEdgeStyle;dashed=0;startArrow=none;endArrow=block;endSize=12;strokeColor=#000082;exitX=0.500;exitY=0.000;exitDx=0;exitDy=0;entryX=0.500;entryY=1.000;entryDx=0;entryDy=0;" parent="1" source="node13" target="node14" edge="1">
          <mxGeometry width="50" height="50" relative="1" as="geometry">
            <Array as="points">
              <mxPoint x="713" y="118" />
              <mxPoint x="360" y="118" />
            </Array>
          </mxGeometry>
        </mxCell>
        <mxCell id="edge3" value="" style="html=1;rounded=1;edgeStyle=orthogonalEdgeStyle;dashed=1;startArrow=none;endArrow=block;endSize=12;strokeColor=#008200;exitX=0.750;exitY=0.000;exitDx=0;exitDy=0;entryX=0.500;entryY=1.001;entryDx=0;entryDy=0;" parent="1" source="node0" target="node8" edge="1">
          <mxGeometry width="50" height="50" relative="1" as="geometry">
            <Array as="points">
              <mxPoint x="122" y="282" />
              <mxPoint x="349" y="282" />
            </Array>
          </mxGeometry>
        </mxCell>
        <mxCell id="edge5" value="" style="html=1;rounded=1;edgeStyle=orthogonalEdgeStyle;dashed=0;startArrow=none;endArrow=block;endSize=12;strokeColor=#000082;exitX=0.250;exitY=0.000;exitDx=0;exitDy=0;entryX=0.500;entryY=1.000;entryDx=0;entryDy=0;" parent="1" source="node0" target="node14" edge="1">
          <mxGeometry width="50" height="50" relative="1" as="geometry">
            <Array as="points">
              <mxPoint x="-91" y="282" />
              <mxPoint x="19" y="282" />
              <mxPoint x="19" y="118" />
              <mxPoint x="360" y="118" />
            </Array>
          </mxGeometry>
        </mxCell>
      </root>
    </mxGraphModel>
  </diagram>
</mxfile>
